<svg width="100" height="100" viewBox="0 0 100 100" fill="none" xmlns="http://www.w3.org/2000/svg">
<g clip-path="url(#clip0_55_24)">
<rect x="20" y="13" width="60" height="63" fill="white"/>
<path d="M13.375 98.25C14.5653 99.1211 15.9495 99.6899 17.4084 99.9077C18.8672 100.125 20.3572 99.9855 21.75 99.5L49.0625 90.1875C49.3595 90.0637 49.6782 90 50 90C50.3218 90 50.6404 90.0637 50.9375 90.1875L78.25 99.5C79.2189 99.8177 80.2304 99.9863 81.25 100C83.184 100.015 85.0705 99.4007 86.625 98.25C87.8686 97.3632 88.881 96.1908 89.5771 94.8312C90.2731 93.4717 90.6325 91.9649 90.625 90.4375V9.5625C90.6407 8.31814 90.4102 7.08294 89.947 5.92793C89.4837 4.77291 88.7967 3.72084 87.9255 2.83221C87.0543 1.94357 86.016 1.23589 84.8704 0.749838C83.7248 0.26379 82.4944 0.00896082 81.25 0L18.75 0C17.5056 0.00896082 16.2752 0.26379 15.1296 0.749838C13.9839 1.23589 12.9457 1.94357 12.0745 2.83221C11.2032 3.72084 10.5163 4.77291 10.053 5.92793C9.58972 7.08294 9.35931 8.31814 9.37499 9.5625V90.4375C9.36744 91.9649 9.72683 93.4717 10.4229 94.8312C11.119 96.1908 12.1314 97.3632 13.375 98.25ZM26.8125 39.375C27.1708 38.2559 27.8346 37.2592 28.7291 36.4972C29.6236 35.7352 30.7132 35.2383 31.875 35.0625L40.5 33.8125L44.375 26C44.9473 25.0154 45.768 24.1983 46.7551 23.6303C47.7422 23.0623 48.8611 22.7634 50 22.7634C51.1388 22.7634 52.2577 23.0623 53.2448 23.6303C54.2319 24.1983 55.0527 25.0154 55.625 26L59.5 33.8125L68.125 35.0625C69.2868 35.2383 70.3764 35.7352 71.2709 36.4972C72.1654 37.2592 72.8292 38.2559 73.1875 39.375C73.5482 40.4775 73.593 41.659 73.3169 42.7857C73.0407 43.9124 72.4546 44.9392 71.625 45.75L65.3125 51.875L66.8125 60.5C67.0181 61.6529 66.8923 62.8404 66.4498 63.9247C66.0073 65.0089 65.2661 65.9453 64.3125 66.625C63.2519 67.378 61.988 67.792 60.6875 67.8125C59.6614 67.8087 58.6523 67.551 57.75 67.0625L50 63L42.25 67.0625C41.221 67.6115 40.0584 67.8604 38.8948 67.7808C37.7312 67.7011 36.6134 67.2962 35.6688 66.6122C34.7241 65.9281 33.9906 64.9924 33.5519 63.9118C33.1132 62.8311 32.987 61.6489 33.1875 60.5L34.6875 51.875L28.375 45.75C27.5453 44.9392 26.9592 43.9124 26.6831 42.7857C26.4069 41.659 26.4518 40.4775 26.8125 39.375ZM39 47.375L32.75 41.25L41.4375 40C42.4371 39.8445 43.3847 39.4511 44.2005 38.8529C45.0162 38.2547 45.6763 37.4691 46.125 36.5625L50 28.75L53.875 36.625C54.3367 37.5159 55.0016 38.2857 55.8159 38.872C56.6302 39.4583 57.5711 39.8447 58.5625 40L67.25 41.25L61 47.375C60.2593 48.0784 59.7056 48.9554 59.3891 49.9267C59.0727 50.8979 59.0034 51.9327 59.1875 52.9375L60.6875 61.5625L52.875 57.4375C51.9823 56.9904 50.9984 56.7551 50 56.75C48.9929 56.7467 48.0022 57.0051 47.125 57.5L39.3125 61.5625L40.8125 52.875C40.9914 51.8798 40.9194 50.8557 40.6029 49.8954C40.2865 48.9351 39.7355 48.0688 39 47.375Z" fill="#5C86AE"/>
</g>
<defs>
<clipPath id="clip0_55_24">
<rect width="100" height="100" fill="white"/>
</clipPath>
</defs>
</svg>
