<svg width="512" height="512" viewBox="0 0 512 512" fill="none" xmlns="http://www.w3.org/2000/svg">
<path d="M465 158H52V339H465V158Z" fill="white"/>
<path d="M366.933 266.667H409.6V290.133H366.933V266.667ZM260.267 224H302.933V290.133H260.267V224Z" fill="#FFCC00"/>
<path d="M420.267 10.6667H91.7334C46.9334 10.6667 10.6667 46.9333 10.6667 91.7333V420.267C10.6667 465.067 46.9334 501.333 91.7334 501.333H420.267C465.067 501.333 501.333 465.067 501.333 420.267V91.7333C501.333 46.9333 465.067 10.6667 420.267 10.6667ZM104.533 298.667C104.533 305.067 100.267 309.333 93.8667 309.333C87.4667 309.333 83.2 305.067 83.2 298.667V213.333C83.2 206.933 87.4667 202.667 93.8667 202.667C100.267 202.667 104.533 206.933 104.533 213.333V298.667ZM215.467 298.667C215.467 305.067 211.2 309.333 204.8 309.333C198.4 309.333 194.133 305.067 194.133 298.667V236.8L181.333 249.6C179.2 251.733 177.067 251.733 174.933 251.733C172.8 251.733 168.533 249.6 168.533 249.6L155.733 236.8V298.667C155.733 305.067 151.467 309.333 145.067 309.333C138.667 309.333 132.267 305.067 132.267 298.667V209.067C132.267 206.933 134.4 204.8 138.667 202.667H147.2C147.2 204.8 149.333 204.8 149.333 204.8L172.8 228.267L196.267 204.8C196.267 204.8 198.4 202.667 200.533 202.667H209.067C211.2 202.667 213.333 204.8 215.467 209.067V213.333V298.667ZM322.133 298.667C322.133 305.067 317.867 309.333 311.467 309.333H249.6C243.2 309.333 238.933 305.067 238.933 298.667V213.333C238.933 206.933 243.2 202.667 249.6 202.667H311.467C317.867 202.667 322.133 206.933 322.133 213.333V298.667ZM428.8 298.667C428.8 305.067 424.533 309.333 418.133 309.333H356.267C349.867 309.333 345.6 305.067 345.6 298.667V213.333C345.6 206.933 349.867 202.667 356.267 202.667C362.667 202.667 366.933 206.933 366.933 213.333V245.333H418.133C424.533 245.333 428.8 249.6 428.8 256V298.667Z" fill="#FFCC00"/>
</svg>
