<svg width="100" height="100" viewBox="0 0 100 100" fill="none" xmlns="http://www.w3.org/2000/svg">
<g clip-path="url(#clip0_25_18)">
<rect x="41" y="13" width="19" height="74" fill="white"/>
<rect x="19" y="39" width="68" height="24" fill="white"/>
<path d="M50 0C22.4289 0 0 22.4289 0 50C0 77.5711 22.4289 100 50 100C77.5711 100 100 77.5711 100 50C100 22.4289 77.5711 0 50 0ZM71.875 54.1664H54.1664V71.875C54.1664 74.1752 52.3002 76.0414 50 76.0414C47.6998 76.0414 45.8336 74.1752 45.8336 71.875V54.1664H28.125C25.8248 54.1664 23.9586 52.3002 23.9586 50C23.9586 47.6998 25.8248 45.8336 28.125 45.8336H45.8336V28.125C45.8336 25.8248 47.6998 23.9586 50 23.9586C52.3002 23.9586 54.1664 25.8248 54.1664 28.125V45.8336H71.875C74.1752 45.8336 76.0414 47.6998 76.0414 50C76.0414 52.3002 74.1752 54.1664 71.875 54.1664Z" fill="#9CB939"/>
</g>
<defs>
<clipPath id="clip0_25_18">
<rect width="100" height="100" fill="white"/>
</clipPath>
</defs>
</svg>
