<svg width="213" height="40" viewBox="0 0 213 40" fill="none" xmlns="http://www.w3.org/2000/svg">
<path d="M60.6 15.872L58.272 16.352L55.56 18.608L58.896 24.872L60.6 25.352V29H52.608V25.352L53.808 24.872L51.936 21.512L50.016 23.12V24.872L51.216 25.352V29H43.056V25.352L44.88 24.872V16.352L43.056 15.872V12.2H51.168V15.872L50.016 16.352V19.616L53.76 16.352L52.584 15.872V12.2H60.6V15.872ZM71.4896 15.872L69.6656 16.352V24.872L71.4896 25.352V29H62.8976V25.352L64.7216 24.872V16.352L62.8976 15.872V12.2H71.4896V15.872ZM84.5959 12.2H92.4679V15.872L90.6439 16.352V29H85.7959L80.2519 19.64V24.872L82.0759 25.352V29H74.2279V25.352L76.0519 24.872V16.352L74.2279 15.872V12.2H81.4279L86.4199 21.176V16.352L84.5959 15.872V12.2ZM108.38 26C107.156 26.984 105.956 28.016 104.732 29H97.8675L94.2435 26V15.128L97.7475 12.2H104.876L108.38 15.128V26ZM102.788 16.352H99.8355L99.1875 16.856V24.32L99.8595 24.872H102.764L103.436 24.32V16.856L102.788 16.352ZM124.622 18.104H120.158L119.678 16.352H116.126L115.43 16.904V24.296L116.15 24.872H118.934L119.678 24.248V21.944H117.422V19.064H124.622V29H120.854L120.374 27.68L118.79 29H114.35L110.486 25.784V15.296L114.206 12.2H121.334L124.622 14.936V18.104ZM140.794 26C139.57 26.984 138.37 28.016 137.146 29H130.282L126.658 26V15.128L130.162 12.2H137.29L140.794 15.128V26ZM135.202 16.352H132.25L131.602 16.856V24.32L132.274 24.872H135.178L135.85 24.32V16.856L135.202 16.352Z" fill="#FAAA3B"/>
<path d="M147.484 29H142.9V24.872H147.484V29ZM159.971 12.2H167.843V15.872L166.019 16.352V29H161.171L155.627 19.64V24.872L157.451 25.352V29H149.603V25.352L151.427 24.872V16.352L149.603 15.872V12.2H156.803L161.795 21.176V16.352L159.971 15.872V12.2ZM184.122 18.104H180.594L180.114 16.352H176.082V19.064H180.114V21.944H176.082V24.872H180.114L180.594 23.12H184.146V29H169.314V25.352L171.138 24.872V16.352L169.314 15.872V12.2H184.122V18.104ZM202.292 19.136H198.764L198.284 16.088H196.436V24.872L198.5 25.352V29H189.428V25.352L191.468 24.872V16.088H189.62L189.14 19.136H185.588V12.2H202.292V19.136Z" fill="#E66927"/>
<path d="M29.7831 31.7775H23.6546C27.5987 29.1611 30.2066 24.6852 30.2066 19.6033C30.2066 11.5593 23.6594 5 15.6033 5C7.54714 5 1 11.5593 1 19.6033C1 27.6473 7.5301 34.1871 15.5704 34.2053C15.5826 34.2053 15.5911 34.2114 15.6021 34.2114H29.7831C30.1058 34.2114 30.4153 34.0832 30.6436 33.855C30.8718 33.6268 31 33.3172 31 32.9945C31 32.6717 30.8718 32.3622 30.6436 32.134C30.4153 31.9058 30.1058 31.7775 29.7831 31.7775ZM8.53773 23.0959C7.61373 23.092 6.72887 22.7224 6.07664 22.0679C5.42442 21.4134 5.05791 20.5273 5.05728 19.6033C5.05696 19.1461 5.14676 18.6934 5.32156 18.271C5.49635 17.8486 5.75271 17.4648 6.07596 17.1415C6.39922 16.8183 6.78303 16.5619 7.20544 16.3871C7.62785 16.2123 8.08058 16.1225 8.53773 16.1228C10.3777 16.1228 12.0303 17.6026 12.0303 19.6033C12.0291 20.5292 11.6607 21.4168 11.006 22.0715C10.3512 22.7262 9.46363 23.0946 8.53773 23.0959ZM15.6033 30.1627C14.6774 30.1614 13.7898 29.793 13.135 29.1383C12.4803 28.4836 12.1119 27.596 12.1107 26.6701C12.1116 25.7439 12.4799 24.856 13.1346 24.201C13.7894 23.5461 14.6772 23.1775 15.6033 23.1762C16.0611 23.177 16.5144 23.268 16.9371 23.4439C17.3598 23.6199 17.7437 23.8774 18.0668 24.2017C18.39 24.526 18.6462 24.9108 18.8207 25.3341C18.9951 25.7574 19.0845 26.211 19.0837 26.6688C19.0845 27.1267 18.9951 27.5802 18.8207 28.0035C18.6462 28.4268 18.39 28.8116 18.0668 29.136C17.7437 29.4603 17.3598 29.7178 16.9371 29.8937C16.5144 30.0697 16.0611 30.1619 15.6033 30.1627ZM14.7514 18.7478C15.1007 18.3133 15.9963 18.2525 16.4551 18.7478C16.9176 19.2078 16.9638 19.9124 16.4551 20.4758C15.9611 20.9687 15.17 20.8932 14.7514 20.4758C14.3048 20.0292 14.2233 19.2759 14.7514 18.7478ZM15.6033 16.0303C13.6781 16.0303 12.1107 14.4763 12.1107 12.5499C12.1107 10.6235 13.6781 9.05728 15.6033 9.05728C17.5297 9.05728 19.0837 10.6235 19.0837 12.5499C19.0837 14.4763 17.5297 16.0303 15.6033 16.0303ZM19.1774 19.6033C19.181 18.6792 19.5505 17.7941 20.205 17.1418C20.8596 16.4895 21.746 16.1231 22.67 16.1228C23.5921 16.126 24.4755 16.4938 25.1276 17.1458C25.7796 17.7978 26.1473 18.6812 26.1505 19.6033C26.1499 20.5273 25.7834 21.4134 25.1311 22.0679C24.4789 22.7224 23.594 23.092 22.67 23.0959C21.7441 23.0946 20.8565 22.7262 20.2018 22.0715C19.5471 21.4168 19.1787 20.5292 19.1774 19.6033Z" fill="#E66927"/>
</svg>
