<svg xmlns="http://www.w3.org/2000/svg" version="1.1" xmlns:xlink="http://www.w3.org/1999/xlink" width="512" height="512" x="0" y="0" viewBox="0 0 32 32" style="enable-background:new 0 0 512 512" xml:space="preserve"><g><path fill="#ffffff" d="M27.45 5.1a1.025 1.025 0 0 0-1.05.1c-3.538 2.65-6.537 1.375-10-.112S8.863 1.85 4.4 5.2A1 1 0 0 0 4 6v21a1 1 0 0 0 2 0v-5.487c3.362-2.263 6.262-1.025 9.6.412 2.037.863 4.225 1.8 6.575 1.8 1.725 0 3.537-.5 5.425-1.925a1.013 1.013 0 0 0 .4-.8V6a1.025 1.025 0 0 0-.55-.9zM19.5 21.288V14.6c-2.362-.675-4.638-1.987-7-2.662v6.7c-2.038-.525-4.2-.6-6.5.562v-6.6c2.288-1.325 4.425-1.25 6.5-.662V5.713c1.055.347 2.09.752 3.1 1.212 1.25.525 2.55 1.088 3.9 1.438V14.6c2.075.588 4.213.663 6.5-.662v6.55c-2.288 1.537-4.362 1.462-6.5.8z" opacity="1" data-original="#000000"/></g></svg>