<svg width="200" height="200" viewBox="0 0 200 200" fill="none" xmlns="http://www.w3.org/2000/svg">
<g clip-path="url(#clip0_18_11)">
<rect x="70" y="32" width="69" height="140" fill="#E66927"/>
<path d="M184.921 152.822C194.475 137.494 200 119.394 200 99.9961C200 44.7641 155.232 0 100 0C44.768 0 0 44.7641 0 99.9961C0 155.244 44.768 200 100 200C119.398 200 137.502 194.473 152.834 184.914L196.664 196.656L184.921 152.822ZM100 46.6359C106.932 46.6359 112.556 52.2559 112.556 59.1918C112.556 66.1238 106.936 71.7477 100 71.7477C93.0641 71.7477 87.4441 66.1277 87.4441 59.1918C87.4441 52.2559 93.068 46.6359 100 46.6359ZM121.972 153.368H78.0281V134.532H87.4441V96.8641H78.0281V78.032H112.556V134.532H121.972V153.368H121.972Z" fill="#FAAA3B"/>
</g>
<defs>
<clipPath id="clip0_18_11">
<rect width="200" height="200" fill="white"/>
</clipPath>
</defs>
</svg>
