<svg width="17" height="51" viewBox="0 0 17 51" fill="none" xmlns="http://www.w3.org/2000/svg">
<g clip-path="url(#clip0_102_2)">
<path d="M4.69126 15.339C4.34326 15.5167 3.94876 15.204 4.01926 14.8065L4.76626 10.5487L1.59601 7.5285C1.29976 7.24575 1.45351 6.72975 1.85101 6.6735L6.25876 6.04725L8.22376 2.15325C8.26124 2.07428 8.32035 2.00757 8.39423 1.96085C8.46811 1.91414 8.55372 1.88934 8.64113 1.88934C8.72854 1.88934 8.81416 1.91414 8.88804 1.96085C8.96192 2.00757 9.02103 2.07428 9.05851 2.15325L11.025 6.04725L15.4335 6.6735C15.8303 6.72975 15.984 7.24575 15.687 7.5285L12.5175 10.5487L13.2645 14.8057C13.3343 15.2047 12.9405 15.5167 12.5925 15.3382L8.64076 13.308L4.69051 15.339H4.69201H4.69126Z" fill="#EAEAEA"/>
<path d="M4.59209 14.3366C4.23686 14.5011 3.83416 14.2116 3.90612 13.8435L4.66864 9.90138L1.43253 7.10499C1.13013 6.8432 1.28707 6.36545 1.69283 6.31337L6.19215 5.73354L8.19798 2.12817C8.23623 2.05506 8.29657 1.99329 8.37199 1.95004C8.4474 1.90679 8.5348 1.88383 8.62402 1.88383C8.71325 1.88383 8.80064 1.90679 8.87606 1.95004C8.95147 1.99329 9.01181 2.05506 9.05007 2.12817L11.0574 5.73354L15.5575 6.31337C15.9625 6.36545 16.1194 6.8432 15.8163 7.10499L12.5809 9.90138L13.3434 13.8428C13.4146 14.2123 13.0127 14.5011 12.6575 14.3359L8.62364 12.4561L4.59209 14.3366Z" fill="#4F4E66"/>
<path d="M4.69126 31.339C4.34326 31.5167 3.94876 31.204 4.01926 30.8065L4.76626 26.5487L1.59601 23.5285C1.29976 23.2457 1.45351 22.7297 1.85101 22.6735L6.25876 22.0472L8.22376 18.1532C8.26124 18.0743 8.32035 18.0076 8.39423 17.9609C8.46811 17.9141 8.55372 17.8893 8.64113 17.8893C8.72854 17.8893 8.81416 17.9141 8.88804 17.9609C8.96192 18.0076 9.02103 18.0743 9.05851 18.1532L11.025 22.0472L15.4335 22.6735C15.8303 22.7297 15.984 23.2457 15.687 23.5285L12.5175 26.5487L13.2645 30.8057C13.3343 31.2047 12.9405 31.5167 12.5925 31.3382L8.64076 29.308L4.69051 31.339H4.69201H4.69126Z" fill="#EAEAEA"/>
<path d="M4.59209 30.3366C4.23686 30.5011 3.83416 30.2116 3.90612 29.8435L4.66864 25.9014L1.43253 23.105C1.13013 22.8432 1.28707 22.3654 1.69283 22.3134L6.19215 21.7335L8.19798 18.1282C8.23623 18.0551 8.29657 17.9933 8.37199 17.95C8.4474 17.9068 8.5348 17.8838 8.62402 17.8838C8.71325 17.8838 8.80064 17.9068 8.87606 17.95C8.95147 17.9933 9.01181 18.0551 9.05007 18.1282L11.0574 21.7335L15.5575 22.3134C15.9625 22.3654 16.1194 22.8432 15.8163 23.105L12.5809 25.9014L13.3434 29.8428C13.4146 30.2123 13.0127 30.5011 12.6575 30.3359L8.62364 28.4561L4.59209 30.3366Z" fill="#FF8042"/>
<path d="M4.69126 48.339C4.34326 48.5167 3.94876 48.204 4.01926 47.8065L4.76626 43.5487L1.59601 40.5285C1.29976 40.2457 1.45351 39.7297 1.85101 39.6735L6.25876 39.0472L8.22376 35.1532C8.26124 35.0743 8.32035 35.0076 8.39423 34.9609C8.46811 34.9141 8.55372 34.8893 8.64113 34.8893C8.72854 34.8893 8.81416 34.9141 8.88804 34.9609C8.96192 35.0076 9.02103 35.0743 9.05851 35.1532L11.025 39.0472L15.4335 39.6735C15.8303 39.7297 15.984 40.2457 15.687 40.5285L12.5175 43.5487L13.2645 47.8057C13.3343 48.2047 12.9405 48.5167 12.5925 48.3382L8.64076 46.308L4.69051 48.339H4.69201H4.69126Z" fill="#EAEAEA"/>
<path d="M4.59209 47.3366C4.23686 47.5011 3.83416 47.2116 3.90612 46.8435L4.66864 42.9014L1.43253 40.105C1.13013 39.8432 1.28707 39.3654 1.69283 39.3134L6.19215 38.7335L8.19798 35.1282C8.23623 35.0551 8.29657 34.9933 8.37199 34.95C8.4474 34.9068 8.5348 34.8838 8.62402 34.8838C8.71325 34.8838 8.80064 34.9068 8.87606 34.95C8.95147 34.9933 9.01181 35.0551 9.05007 35.1282L11.0574 38.7335L15.5575 39.3134C15.9625 39.3654 16.1194 39.8432 15.8163 40.105L12.5809 42.9014L13.3434 46.8428C13.4146 47.2123 13.0127 47.5011 12.6575 47.3359L8.62364 45.4561L4.59209 47.3366Z" fill="#f04c01"/>
</g>
<defs>
<clipPath id="clip0_102_2">
<rect width="17" height="51" fill="white"/>
</clipPath>
</defs>
</svg>