<svg xmlns="http://www.w3.org/2000/svg" version="1.1" xmlns:xlink="http://www.w3.org/1999/xlink" width="512" height="512" x="0" y="0" viewBox="0 0 24 24" style="enable-background:new 0 0 512 512" xml:space="preserve"><g><path d="M12 2.51a9.22 9.22 0 0 0-7.85 14.06l-.73 4a.76.76 0 0 0 .21.67.74.74 0 0 0 .53.21h.15l4.84-1A9 9 0 0 0 12 21a9.22 9.22 0 0 0 0-18.49zM7.25 12a1.25 1.25 0 1 1 1.25 1.25A1.25 1.25 0 0 1 7.25 12zm3.5 0A1.25 1.25 0 1 1 12 13.25 1.25 1.25 0 0 1 10.75 12zm4.75 1.25A1.25 1.25 0 1 1 16.75 12a1.25 1.25 0 0 1-1.25 1.25z" data-name="Layer 2" fill="#faaa3b" opacity="1" data-original="#000000"/></g></svg>