<svg xmlns="http://www.w3.org/2000/svg" version="1.1" xmlns:xlink="http://www.w3.org/1999/xlink" width="512" height="512" x="0" y="0" viewBox="0 0 24 24" style="enable-background:new 0 0 512 512" xml:space="preserve"><g><path d="m21 9.6-.2-.24a11.43 11.43 0 0 0-17.56 0L3 9.6a3.77 3.77 0 0 0 0 4.8l.2.24a11.43 11.43 0 0 0 17.56 0l.2-.24A3.77 3.77 0 0 0 21 9.6zm-9 6.15A3.75 3.75 0 1 1 15.75 12 3.75 3.75 0 0 1 12 15.75zM14.25 12A2.25 2.25 0 1 1 12 9.75 2.25 2.25 0 0 1 14.25 12z" fill="#faaa3b" opacity="1" data-original="#000000"/></g></svg>