<svg width="100" height="100" viewBox="0 0 100 100" fill="none" xmlns="http://www.w3.org/2000/svg">
<g clip-path="url(#clip0_25_15)">
<rect x="15" y="34" width="74" height="36" fill="white"/>
<path d="M50.1953 0C22.7324 0 0 22.3418 0 49.8047C0 77.2676 22.7324 100 50.1953 100C77.6582 100 100 77.2676 100 49.8047C100 22.3418 77.6582 0 50.1953 0ZM76.5625 55.6641H23.4375C20.207 55.6641 17.5781 53.0352 17.5781 49.8047C17.5781 46.5742 20.207 43.9453 23.4375 43.9453H76.5625C79.791 43.9453 82.4219 46.5742 82.4219 49.8047C82.4219 53.0352 79.791 55.6641 76.5625 55.6641Z" fill="#FF6629"/>
</g>
<defs>
<clipPath id="clip0_25_15">
<rect width="100" height="100" fill="white"/>
</clipPath>
</defs>
</svg>
